<svg width="281" height="281" viewBox="0 0 281 281" fill="none" xmlns="http://www.w3.org/2000/svg">
<path fill-rule="evenodd" clip-rule="evenodd" d="M107 82V135H171V117H145.5C141.358 117 138 113.642 138 109.5V82H107ZM160.327 69.7778C158.952 68.0831 156.852 67 154.5 67H145.5H99.5L99.4515 67.0002C95.3317 67.0262 92 70.374 92 74.5V74.5108L92 135H84C76.8203 135 71 140.82 71 148V191C71 198.18 76.8203 204 84 204H197C204.18 204 210 198.18 210 191V148C210 140.82 204.18 135 197 135H186V109.5V98.5C186 96.3589 185.103 94.4274 183.664 93.0609C183.62 93.0147 183.575 92.969 183.53 92.9238L160.91 70.3033C160.723 70.1162 160.528 69.941 160.327 69.7778ZM171 101.607L153 83.6068V102H171V101.607ZM162 168.5C162 173.746 157.747 178 152.5 178H128.5C123.253 178 119 173.746 119 168.5C119 163.254 123.253 159 128.5 159H152.5C157.747 159 162 163.254 162 168.5Z" />
<path fill-rule="evenodd" clip-rule="evenodd" d="M100 7.5C100 11.6421 96.6421 15 92.5 15L15 15L15 92.5C15 96.6421 11.6421 100 7.5 100C3.35786 100 0 96.6421 0 92.5L5.14582e-06 7.50888C1.71559e-06 7.50592 0 7.50296 0 7.5C0 4.3934 1.8888 1.72795 4.58066 0.589387C5.47795 0.209866 6.46447 0 7.5 0C7.5 0 7.5 0 7.5 0H92.5C96.6421 0 100 3.35786 100 7.5ZM273.5 0C277.642 0 281 3.35786 281 7.5V92.5C281 96.6421 277.642 100 273.5 100C269.358 100 266 96.6421 266 92.5V15L188.5 15C184.358 15 181 11.6421 181 7.5C181 3.35786 184.358 0 188.5 0H273.5ZM273.5 281C277.642 281 281 277.642 281 273.5V188.5C281 184.358 277.642 181 273.5 181C269.358 181 266 184.358 266 188.5V266H188.5C184.358 266 181 269.358 181 273.5C181 277.642 184.358 281 188.5 281H273.5ZM100 273.5C100 277.642 96.6421 281 92.5 281H7.5C3.35786 281 0 277.642 0 273.5L5.14635e-06 188.5C5.37681e-06 184.358 3.35787 181 7.5 181C11.6421 181 15 184.358 15 188.5L15 266H92.5C96.6421 266 100 269.358 100 273.5Z" />
<path fill-rule="evenodd" clip-rule="evenodd" d="M250.066 154.932L235.192 152.992C235.724 148.91 236 144.741 236 140.5C236 136.259 235.724 132.09 235.192 128.008L250.066 126.068C250.682 130.791 251 135.608 251 140.5C251 145.392 250.682 150.209 250.066 154.932ZM242.615 98.202L228.759 103.948C225.543 96.192 221.33 88.9455 216.277 82.3693L228.171 73.2294C234.014 80.8331 238.89 89.2186 242.615 98.202ZM207.771 52.8294L198.631 64.7232C192.055 59.6696 184.808 55.4569 177.052 52.2407L182.798 38.3848C191.781 42.1101 200.167 46.9862 207.771 52.8294ZM154.932 30.934L152.992 45.808C148.91 45.2755 144.741 45 140.5 45C136.259 45 132.09 45.2755 128.008 45.808L126.068 30.934C130.791 30.3178 135.608 30 140.5 30C145.392 30 150.209 30.3178 154.932 30.934ZM98.202 38.3848L103.948 52.2407C96.192 55.4569 88.9455 59.6696 82.3693 64.7231L73.2294 52.8294C80.8331 46.9862 89.2186 42.1101 98.202 38.3848ZM52.8294 73.2293L64.7232 82.3692C59.6696 88.9455 55.4569 96.192 52.2407 103.948L38.3848 98.2019C42.1101 89.2185 46.9862 80.833 52.8294 73.2293ZM30.934 126.068C30.3178 130.791 30 135.608 30 140.5C30 145.392 30.3178 150.209 30.934 154.932L45.808 152.992C45.2755 148.91 45 144.741 45 140.5C45 136.259 45.2755 132.09 45.808 128.008L30.934 126.068ZM38.3848 182.798L52.2407 177.052C55.4569 184.808 59.6696 192.054 64.7231 198.631L52.8294 207.771C46.9862 200.167 42.1101 191.781 38.3848 182.798ZM73.2293 228.171L82.3692 216.277C88.9455 221.33 96.192 225.543 103.948 228.759L98.2019 242.615C89.2186 238.89 80.833 234.014 73.2293 228.171ZM126.068 250.066L128.008 235.192C132.09 235.724 136.259 236 140.5 236C144.741 236 148.91 235.724 152.992 235.192L154.932 250.066C150.209 250.682 145.392 251 140.5 251C135.608 251 130.791 250.682 126.068 250.066ZM182.798 242.615L177.052 228.759C184.808 225.543 192.054 221.33 198.631 216.277L207.771 228.171C200.167 234.014 191.781 238.89 182.798 242.615ZM228.171 207.771L216.277 198.631C221.33 192.055 225.543 184.808 228.759 177.052L242.615 182.798C238.89 191.781 234.014 200.167 228.171 207.771Z" />
</svg>
